<svg width="33" height="33" viewBox="0 0 33 33" fill="none" xmlns="http://www.w3.org/2000/svg">
<path d="M27 0H6C2.68629 0 0 2.68629 0 6V27C0 30.3137 2.68629 33 6 33H27C30.3137 33 33 30.3137 33 27V6C33 2.68629 30.3137 0 27 0Z" fill="#131415"/>
<path d="M14.8429 4.5L17.404 6.11514L15.4158 12.8759L12.8555 11.2607L14.8429 4.5Z" fill="#B0915A"/>
<path d="M11.8148 14.8008L14.3751 16.4159L11.8736 24.929L9.3125 23.3138L11.8148 14.8008Z" fill="#B0915A"/>
<path d="M18.9992 8.08187C18.8032 7.95977 18.5768 7.89584 18.3461 7.89749H14.6729L17.234 9.51485H20.9072C21.139 9.51172 21.3669 9.57519 21.564 9.69775L18.9992 8.08187Z" fill="#997D4C"/>
<path d="M16.1001 14.8008L18.6605 16.4159H14.3753L11.8149 14.8008H16.1001Z" fill="#997D4C"/>
<path d="M18.0581 11.2607L20.6192 12.8759L18.6605 16.4159L16.1001 14.8008L18.0581 11.2607Z" fill="#AB8E56"/>
<path d="M26.1982 10.6419C26.1916 10.5055 26.1813 10.369 26.1643 10.2348V10.2223C26.1423 10.0531 26.1124 9.88669 26.0746 9.72296C26.0643 9.67871 26.0496 9.63667 26.0386 9.59242C26.0077 9.47368 25.9746 9.35568 25.9356 9.24063C25.9304 9.22588 25.9275 9.21039 25.9224 9.19564C25.9084 9.15581 25.8893 9.12189 25.8746 9.07985C25.8341 8.97217 25.7907 8.86524 25.7429 8.76198C25.7164 8.70372 25.6877 8.64693 25.659 8.59015C25.609 8.49353 25.5568 8.39839 25.5009 8.30547C25.4818 8.27375 25.4671 8.23909 25.4472 8.20812C25.4274 8.17714 25.4009 8.14027 25.3781 8.10634L25.3192 8.01931C25.2457 7.91164 25.1648 7.80544 25.0802 7.7044L25.0765 7.69997C24.9727 7.57689 24.8625 7.45946 24.7463 7.34818L24.733 7.33417C24.683 7.28623 24.6278 7.24419 24.5756 7.19847C24.5234 7.15274 24.4631 7.09743 24.4035 7.05097L24.3881 7.03769C24.2782 6.95312 24.1645 6.87347 24.0468 6.79874L21.4798 5.18359C21.6033 5.26177 21.7225 5.34658 21.8365 5.43582C21.8968 5.48302 21.9527 5.53465 22.0101 5.58332C22.0675 5.632 22.1256 5.6792 22.1793 5.73083C22.2955 5.8421 22.4058 5.95954 22.5095 6.08262C22.5956 6.18513 22.6757 6.29207 22.7522 6.40196C22.7728 6.43072 22.792 6.46022 22.8118 6.48972C22.8545 6.55388 22.8942 6.621 22.9339 6.68811C22.9898 6.78104 23.0425 6.87618 23.0921 6.97353C23.1207 7.02958 23.1494 7.08637 23.1759 7.14389C23.2244 7.24788 23.2671 7.35482 23.3083 7.46249C23.3282 7.51633 23.3502 7.5687 23.3686 7.62327C23.4083 7.73832 23.4422 7.85632 23.4716 7.9758C23.4826 8.01931 23.4973 8.06135 23.5076 8.1056C23.5462 8.27036 23.5761 8.43702 23.5974 8.6049C23.6157 8.74355 23.6268 8.88367 23.6334 9.02454C23.6334 9.05035 23.6334 9.07616 23.6371 9.10271C23.6415 9.2421 23.6408 9.38297 23.6371 9.52383C23.6371 9.54964 23.6371 9.57546 23.6327 9.60201C23.6246 9.73771 23.6113 9.87489 23.5922 10.0121C23.5922 10.0275 23.5922 10.0438 23.5863 10.06C23.5643 10.2075 23.5348 10.355 23.5003 10.5084C23.4944 10.5335 23.4885 10.5578 23.4819 10.5822C23.448 10.7208 23.4083 10.8587 23.362 10.9966C23.3362 11.0704 23.3054 11.1493 23.2767 11.226C23.248 11.3027 23.2119 11.4001 23.1744 11.4871C23.145 11.5542 23.1104 11.6213 23.0781 11.6884C23.0244 11.8005 22.9722 11.9097 22.9096 12.024L21.0569 15.3295L20.6597 15.9726C20.6633 15.9726 20.6722 15.9881 20.6825 16.0021L20.6957 16.0191L20.7295 16.0648C20.7362 16.0744 20.7443 16.0862 20.7523 16.0965L20.7965 16.1599L20.8266 16.2042C20.8436 16.2293 20.8612 16.2573 20.8796 16.286L20.9134 16.3384C20.9502 16.3974 20.987 16.4623 21.0311 16.5339C21.037 16.5449 21.0436 16.5575 21.0502 16.5685C21.0863 16.6319 21.1238 16.7013 21.1606 16.7735C21.1716 16.7949 21.1826 16.8163 21.1937 16.8392C21.2371 16.9262 21.2812 17.0184 21.3246 17.1165C21.329 17.1275 21.3334 17.1401 21.3386 17.1511C21.3768 17.2396 21.4121 17.3333 21.4496 17.4307C21.4614 17.4638 21.4739 17.497 21.4857 17.531C21.5018 17.5759 21.5166 17.6224 21.532 17.6689C21.5474 17.7153 21.5592 17.7552 21.5717 17.7994C21.5842 17.8437 21.5989 17.8968 21.6122 17.9469C21.6254 17.9971 21.6357 18.0376 21.6467 18.0848C21.6578 18.132 21.6695 18.1873 21.6798 18.2397C21.6901 18.2921 21.699 18.3348 21.7078 18.3872C21.7166 18.4396 21.7247 18.4956 21.7328 18.5502C21.7409 18.6048 21.7453 18.6439 21.7505 18.6918C21.7644 18.8179 21.7755 18.9462 21.7791 19.0783L24.3402 20.6934C24.3366 20.5614 24.3255 20.4331 24.3116 20.3069C24.3116 20.2937 24.3116 20.2797 24.3116 20.2664C24.3071 20.2317 24.3013 20.1993 24.2961 20.1646C24.2888 20.1108 24.2807 20.0562 24.2718 20.0031C24.263 19.95 24.2535 19.9057 24.2439 19.8556C24.2343 19.8054 24.2226 19.7523 24.2108 19.7014C24.199 19.6506 24.188 19.6085 24.1762 19.5635C24.1645 19.5185 24.1497 19.4654 24.1358 19.416C24.1218 19.3666 24.1093 19.3275 24.0953 19.2848C24.0813 19.242 24.0652 19.1926 24.0497 19.1476C24.0438 19.1299 24.0379 19.1107 24.0321 19.0937C24.0262 19.0768 24.0196 19.0628 24.0129 19.0465C23.9776 18.9492 23.9394 18.8555 23.9019 18.767C23.8975 18.756 23.893 18.7434 23.8879 18.7331C23.8452 18.6343 23.8011 18.5421 23.7577 18.4551L23.7239 18.3894C23.6871 18.3157 23.6503 18.2478 23.6143 18.1844L23.5952 18.1505C23.5532 18.0767 23.5142 18.0133 23.4767 17.9536L23.4672 17.9381L23.4444 17.9027L23.3907 17.8201L23.3598 17.7751C23.3443 17.7522 23.3296 17.7323 23.3164 17.7131L23.2929 17.6807L23.2598 17.6349L23.2465 17.618L23.2237 17.5885L23.6209 16.9454L25.4678 13.645C25.4921 13.6015 25.5156 13.558 25.5414 13.5152C25.5774 13.4466 25.6061 13.3781 25.6392 13.3095C25.6723 13.2409 25.7054 13.1752 25.7348 13.1081C25.7429 13.0912 25.7525 13.0742 25.7598 13.0565C25.7892 12.9872 25.8113 12.9171 25.8378 12.847C25.8643 12.777 25.8974 12.6944 25.9231 12.6184C25.9275 12.6029 25.9349 12.5882 25.9393 12.5727C25.979 12.4503 26.0128 12.3264 26.043 12.2039C26.0489 12.1796 26.0555 12.1553 26.0606 12.1302C26.0658 12.1051 26.0776 12.0653 26.0842 12.0328C26.1092 11.9156 26.1305 11.7983 26.1474 11.6818C26.1474 11.6656 26.1511 11.6501 26.1533 11.6338C26.1658 11.5431 26.1776 11.4532 26.1849 11.3632C26.1894 11.3167 26.1908 11.2703 26.1938 11.2238L26.1982 11.1456C26.2048 11.0047 26.2055 10.8639 26.1982 10.7245C26.1982 10.695 26.1982 10.6677 26.1982 10.6419Z" fill="#B29257"/>
<path d="M21.7759 19.0752L24.337 20.6911H16.8751L14.314 19.0752H21.7759Z" fill="#997D4C"/>
<path d="M28.184 20.1221C28.184 20.0144 28.1795 19.9067 28.1729 19.7998C28.1729 19.7666 28.1729 19.7341 28.1678 19.7017C28.1597 19.5763 28.1486 19.4517 28.1339 19.3278C28.1339 19.3189 28.1339 19.3101 28.1303 19.3012C28.1214 19.2275 28.1089 19.1537 28.0979 19.08C28.0869 19.0062 28.0758 18.9266 28.0619 18.8506C28.0479 18.7746 28.0324 18.7031 28.017 18.6345C28.0015 18.5659 27.9868 18.4833 27.9684 18.4081C27.9501 18.3329 27.9309 18.2665 27.9118 18.1957C27.8927 18.1249 27.8728 18.0482 27.8508 17.9744C27.8287 17.9007 27.8052 17.835 27.7824 17.7657C27.7596 17.6964 27.7434 17.6396 27.7213 17.5784C27.7176 17.5688 27.7132 17.56 27.7103 17.5504C27.6831 17.4766 27.6536 17.4029 27.6257 17.3335C27.5977 17.2642 27.5742 17.1993 27.5455 17.1337C27.5168 17.068 27.4823 16.9928 27.4499 16.9227C27.4175 16.8527 27.3918 16.7929 27.3602 16.7288C27.3285 16.6646 27.2866 16.5931 27.2535 16.5252C27.2204 16.4574 27.1888 16.3991 27.1542 16.3379C27.1196 16.2767 27.077 16.2059 27.0373 16.141C26.9975 16.0761 26.9747 16.0326 26.9416 15.9802C26.9384 15.9745 26.9347 15.9691 26.9306 15.964C26.8438 15.8268 26.7534 15.6941 26.6592 15.5643C26.6364 15.5318 26.6114 15.5016 26.5857 15.4699C26.5121 15.3732 26.4385 15.2781 26.365 15.1859C26.3525 15.1704 26.3415 15.1535 26.3282 15.1387C26.2959 15.1004 26.262 15.065 26.2289 15.0266C26.1863 14.9772 26.1436 14.9285 26.0995 14.8791C26.0553 14.8297 25.9987 14.7729 25.948 14.7213C25.8972 14.6697 25.8582 14.6291 25.8126 14.5856C25.7994 14.5723 25.7869 14.5583 25.7736 14.5458C25.7001 14.4757 25.6265 14.4071 25.5478 14.3407L22.9867 12.7256C23.0772 12.8038 23.1647 12.8864 23.2515 12.9697C23.2971 13.014 23.342 13.0604 23.3861 13.1054C23.4302 13.1504 23.4891 13.2101 23.5391 13.264C23.5891 13.3178 23.6252 13.3606 23.6678 13.4115C23.7105 13.4624 23.7598 13.5169 23.8046 13.5715C23.8801 13.6639 23.9537 13.7583 24.0253 13.8547C24.0496 13.8872 24.0746 13.9174 24.0988 13.9498C24.192 14.0797 24.2822 14.2126 24.3695 14.3488C24.407 14.4078 24.4431 14.4691 24.4784 14.5295C24.5137 14.59 24.5563 14.6571 24.5931 14.7228C24.6299 14.7884 24.6608 14.8489 24.6939 14.9123C24.727 14.9757 24.7674 15.0458 24.7991 15.1144C24.8307 15.183 24.8594 15.2442 24.8895 15.3091C24.9197 15.374 24.9543 15.4477 24.9851 15.5185C25.016 15.5893 25.0388 15.6528 25.0653 15.7206C25.0918 15.7885 25.1227 15.8629 25.1492 15.9352C25.1756 16.0075 25.1977 16.0827 25.2227 16.1521C25.2477 16.2214 25.2705 16.29 25.2911 16.36C25.3117 16.4301 25.3323 16.5075 25.3522 16.5813C25.372 16.655 25.3919 16.7229 25.4088 16.7944C25.4257 16.866 25.4412 16.9419 25.4574 17.0157C25.4735 17.0894 25.489 17.1632 25.5022 17.2369C25.5155 17.3107 25.5265 17.3844 25.5375 17.4641C25.5486 17.5437 25.5618 17.6116 25.5706 17.6853C25.5868 17.8173 25.5993 17.9508 25.6089 18.0843C25.6089 18.1175 25.6089 18.1507 25.614 18.1831C25.6199 18.2908 25.6236 18.3978 25.6251 18.5054C25.6251 18.5445 25.6251 18.5836 25.6251 18.6227C25.6251 18.7606 25.6251 18.8985 25.6133 19.0372C25.603 19.2112 25.5853 19.3838 25.5655 19.5534C25.5508 19.6832 25.5324 19.813 25.511 19.9414C25.5044 19.9841 25.4949 20.0269 25.4875 20.0697C25.4721 20.1545 25.4574 20.2401 25.439 20.3241C25.4309 20.364 25.4206 20.403 25.411 20.4436C25.3912 20.5329 25.3698 20.6228 25.347 20.7121C25.3338 20.7615 25.3191 20.8102 25.3051 20.8596C25.283 20.9377 25.261 21.0159 25.236 21.0934C25.2176 21.1516 25.1977 21.2099 25.1779 21.2681C25.158 21.3264 25.1374 21.3876 25.1161 21.4466C25.0947 21.5056 25.0719 21.5632 25.0491 21.6214C25.0263 21.6797 25.0035 21.7379 24.9793 21.7962C24.966 21.8279 24.952 21.8589 24.9381 21.8906C24.8535 22.0875 24.7623 22.2815 24.663 22.4703C24.652 22.4909 24.6402 22.5108 24.6292 22.5308C24.5267 22.7225 24.4176 22.9098 24.3018 23.0927L24.2739 23.1333C24.1503 23.3251 24.0196 23.5109 23.8819 23.6909C23.8738 23.7019 23.8649 23.7123 23.8568 23.7226C23.7097 23.9129 23.5548 24.0962 23.392 24.2728C23.364 24.303 23.3354 24.3325 23.3074 24.362C23.2456 24.4276 23.1831 24.4918 23.1191 24.5552L23.0095 24.6614C22.9477 24.7197 22.8852 24.7779 22.822 24.8347L22.716 24.9291C22.5976 25.0317 22.4777 25.132 22.3549 25.2241C22.3505 25.2278 22.3461 25.23 22.3424 25.2337C22.2225 25.3259 22.0997 25.4137 21.9746 25.4992L21.8746 25.5663C21.7341 25.66 21.5922 25.7507 21.4465 25.8348L21.4281 25.8451C21.2869 25.9263 21.1435 26.0022 20.9971 26.0752L20.8956 26.1254C20.7485 26.1991 20.5948 26.2648 20.4411 26.3275L20.3675 26.3555C20.2285 26.4101 20.0873 26.4602 19.9453 26.5074L19.8497 26.5391C19.6916 26.5885 19.5312 26.6328 19.3701 26.6719L19.2679 26.6955C19.1208 26.7294 18.971 26.7589 18.8185 26.784C18.795 26.784 18.7722 26.7928 18.7494 26.7958C18.5831 26.8223 18.4147 26.8415 18.2463 26.8555C18.2075 26.859 18.1685 26.8619 18.1293 26.8644C17.9565 26.8769 17.7829 26.885 17.6078 26.885H4.5L7.0611 28.5002H20.1667C20.3418 28.5002 20.5154 28.492 20.6882 28.4795C20.7279 28.4795 20.7662 28.4743 20.8052 28.4707C20.9743 28.4566 21.1428 28.4375 21.309 28.4117L21.3774 28.3991C21.5289 28.374 21.6782 28.3445 21.8275 28.3106L21.929 28.287C22.0909 28.2477 22.251 28.2034 22.4093 28.1543L22.5042 28.1226C22.6469 28.0763 22.7879 28.0257 22.9271 27.9706L23.0007 27.9426C23.1544 27.8799 23.3059 27.8121 23.4553 27.7405L23.5568 27.6904C23.7039 27.6166 23.8466 27.5429 23.9878 27.4603L24.0062 27.4499C24.1533 27.3659 24.2938 27.2752 24.4342 27.1815C24.4512 27.1704 24.4688 27.1608 24.485 27.1498C24.5012 27.1387 24.5174 27.1262 24.5335 27.1151C24.6586 27.0288 24.7814 26.9411 24.9013 26.8481L24.9131 26.84C25.0366 26.7441 25.1565 26.6438 25.2749 26.5413C25.2889 26.5288 25.3036 26.5177 25.3176 26.5059L25.3801 26.4477C25.4441 26.3901 25.5066 26.3319 25.5684 26.2729C25.6052 26.2382 25.642 26.2036 25.6773 26.1674C25.742 26.104 25.8045 26.0391 25.8663 25.9735C25.8891 25.9499 25.9134 25.9262 25.9399 25.8997C25.945 25.8945 25.9494 25.8879 25.9546 25.8827C26.1169 25.7057 26.2718 25.5221 26.4194 25.3318L26.4371 25.3119L26.4437 25.3016C26.582 25.1216 26.7129 24.9328 26.8365 24.744L26.8563 24.716C26.8591 24.7117 26.8615 24.7073 26.8637 24.7027C26.9806 24.5206 27.0895 24.334 27.1917 24.1415C27.1991 24.1275 27.2079 24.1149 27.2145 24.1017C27.2211 24.0884 27.2211 24.0869 27.2248 24.0803C27.3229 23.8905 27.4148 23.697 27.5006 23.4998C27.508 23.4844 27.5161 23.4703 27.5227 23.4541C27.5293 23.4379 27.5352 23.4224 27.5418 23.4069C27.5661 23.3479 27.5889 23.2889 27.6154 23.2299C27.6419 23.1709 27.6603 23.1156 27.6816 23.0573C27.7029 22.9991 27.7235 22.9371 27.7441 22.8767C27.7581 22.8339 27.7743 22.7918 27.7882 22.7491L27.8015 22.7041C27.8258 22.6266 27.8486 22.5477 27.8706 22.4695C27.8846 22.4209 27.8993 22.3722 27.9118 22.322C27.9353 22.2328 27.9567 22.1421 27.9773 22.0514C27.9846 22.0167 27.9942 21.9828 28.0023 21.9481V21.9341C28.0207 21.8493 28.0354 21.7638 28.0508 21.6782C28.0582 21.6354 28.0677 21.5941 28.0744 21.5514C28.0957 21.423 28.1133 21.294 28.1288 21.1634C28.1398 21.0639 28.1509 20.965 28.1597 20.8647C28.1663 20.791 28.1722 20.7172 28.1766 20.6435C28.1847 20.5048 28.1876 20.3669 28.1884 20.2297C28.184 20.2002 28.184 20.1611 28.184 20.1221Z" fill="url(#paint0_linear_3164_6138)"/>
<path d="M19.0456 4.5C22.7791 4.5 24.8298 8.59317 22.9064 12.0263L21.0536 15.3318L20.6564 15.9749C20.7101 16.042 21.7244 17.3231 21.7759 19.0724H14.314L19.3979 9.8757C19.9003 8.97078 19.3288 7.89401 18.3461 7.89401H14.6729L15.5438 4.5H19.0456Z" fill="#F4D78B"/>
<path d="M22.9875 12.7291C24.6387 14.1621 25.7611 16.5642 25.6133 19.0385C25.603 19.2126 25.5853 19.3851 25.5655 19.5548C25.0969 23.6406 21.6164 26.8885 17.6086 26.8885H4.5L11.1139 4.5H14.843L12.8571 11.2607H18.0594L16.1015 14.8008H11.8148L9.31402 23.3138H17.8094C20.0858 23.3138 22.0555 21.3963 22.1968 19.0363C22.263 17.9345 21.8231 16.6652 21.206 15.9078L22.9875 12.7291Z" fill="#F4D78B"/>
<defs>
<linearGradient id="paint0_linear_3164_6138" x1="4.5" y1="801.933" x2="2373.12" y2="801.933" gradientUnits="userSpaceOnUse">
<stop offset="0.18" stop-color="#997D4C"/>
<stop offset="0.91" stop-color="#AA8C52"/>
<stop offset="0.98" stop-color="#AC8E53"/>
</linearGradient>
</defs>
</svg>
