<svg width="24" height="26" viewBox="0 0 24 26" fill="none" xmlns="http://www.w3.org/2000/svg">
<path fill-rule="evenodd" clip-rule="evenodd" d="M12.0515 2.63235L3.35057 7.66112V17.7187L12.0515 22.7475L20.7525 17.7187V7.66112L12.0515 2.63235ZM12.4169 0.0980175C12.1908 -0.0326725 11.9122 -0.0326725 11.6861 0.0980175L1.34074 6.07716C1.11461 6.20787 0.975342 6.44941 0.975342 6.71077V18.6691C0.975342 18.9304 1.11461 19.172 1.34074 19.3027L11.6861 25.2818C11.9122 25.4125 12.1908 25.4125 12.4169 25.2818L22.7623 19.3027C22.9884 19.172 23.1276 18.9304 23.1276 18.6691V6.71077C23.1276 6.44941 22.9884 6.20787 22.7623 6.07716L12.4169 0.0980175Z" fill="#FF9211"/>
<path d="M12.0517 6.27556L6.50226 9.48288V15.8976L12.0152 19.0838C12.0378 19.0968 12.0517 19.121 12.0517 19.1472V20.2454C12.0517 20.3017 11.9908 20.3369 11.9421 20.3088L5.6801 16.6895C5.5105 16.5915 5.40601 16.4104 5.40601 16.2144V9.16608C5.40601 8.97005 5.5105 8.78892 5.6801 8.69088L11.7776 5.16675C11.9472 5.06876 12.1562 5.06876 12.3258 5.16675L18.6128 8.78726C18.6611 8.81507 18.6616 8.88474 18.6136 8.91323C18.2426 9.13353 18.0526 9.23152 17.6375 9.46261C17.615 9.47512 17.5875 9.475 17.5652 9.46216L12.0517 6.27556Z" fill="#FF9211"/>
<path d="M12.9653 12.8257C12.9653 12.7987 12.9802 12.7739 13.0041 12.7611L18.5219 9.82118C18.5706 9.79525 18.6293 9.83054 18.6293 9.88576V17.0379C18.6293 17.064 18.6155 17.0881 18.5929 17.1011L13.0751 20.3084C13.0264 20.3367 12.9653 20.3016 12.9653 20.2451V12.8257Z" fill="#FF9211"/>
</svg>
